<svg xmlns="http://www.w3.org/2000/svg" xmlns:xlink="http://www.w3.org/1999/xlink" viewBox="0 0 126.6 126.61"><defs><style>.cls-1{mask:url(#mask);}.cls-2{fill:#fff200;}.cls-3{fill:#381e1e;}.cls-4{filter:url(#luminosity-noclip);}</style><filter id="luminosity-noclip" x="0" y="-8432.8" width="126.6" height="32766" filterUnits="userSpaceOnUse" color-interpolation-filters="sRGB"><feFlood flood-color="#fff" result="bg"/><feBlend in="SourceGraphic" in2="bg"/></filter><mask id="mask" x="0" y="-8432.8" width="126.6" height="32766" maskUnits="userSpaceOnUse"><g class="cls-4"/></mask></defs><title>Asset 1</title><g id="Layer_2" data-name="Layer 2"><g id="Layer_1-2" data-name="Layer 1"><g class="cls-1"><path class="cls-2" d="M126.6,116.47a10.15,10.15,0,0,1-10.14,10.14H10.13A10.14,10.14,0,0,1,0,116.47V10.14A10.14,10.14,0,0,1,10.13,0H116.46A10.14,10.14,0,0,1,126.6,10.14Z"/></g><path class="cls-3" d="M64.6,16.26C35.39,16.26,11.72,35,11.72,58c0,14.84,9.81,27.84,24.54,35.27l-5,18.6a1.53,1.53,0,0,0,1.45,2,1.6,1.6,0,0,0,.94-.36L55.08,99.1a67.83,67.83,0,0,0,9.52.69c29.2,0,52.9-18.68,52.9-41.77S93.8,16.26,64.6,16.26Z"/><path class="cls-2" d="M30.28,51.4H24.52a3.84,3.84,0,0,1-2.05-.54,2.28,2.28,0,0,1-1-1.55c0-.17-.06-.38-.08-.59a2.31,2.31,0,0,1,.9-1.95,3.57,3.57,0,0,1,2.26-.72H42.11a3.74,3.74,0,0,1,2,.54,2.34,2.34,0,0,1,1.07,1.56,2.73,2.73,0,0,1,0,.57,2.36,2.36,0,0,1-.88,2,3.54,3.54,0,0,1-2.25.7H36.37l0,19.83a3.12,3.12,0,0,1-.84,2.3,2.88,2.88,0,0,1-2.22.87,3,3,0,0,1-1.95-.64,2.72,2.72,0,0,1-1-1.71,3.69,3.69,0,0,1-.06-.82Z"/><path class="cls-2" d="M46.72,47.5A2.7,2.7,0,0,1,47.83,46a3.62,3.62,0,0,1,1.87-.45h1.46a3.87,3.87,0,0,1,2,.48,3.25,3.25,0,0,1,1.26,1.85l7.34,21.3a11.32,11.32,0,0,1,.49,1.7,6,6,0,0,1,.12.73,2.85,2.85,0,0,1-2.89,2.78,2.6,2.6,0,0,1-2.73-1.74L55.17,68h-9.8L43.8,72.66a2.58,2.58,0,0,1-2.75,1.74,2.83,2.83,0,0,1-1.79-.56,2.53,2.53,0,0,1-.93-1.57,3.2,3.2,0,0,1-.06-.65,4,4,0,0,1,.17-1.12c.12-.44.26-.88.42-1.31Zm3.68,5h-.07L46.75,63.62h7.13Z"/><path class="cls-2" d="M63.32,48.72a3.12,3.12,0,0,1,.83-2.28,2.88,2.88,0,0,1,2.23-.88,3,3,0,0,1,2,.63,3.16,3.16,0,0,1,1.07,2.53V68.56H79.57a3.51,3.51,0,0,1,2.05.55,2.35,2.35,0,0,1,1,1.55,3.4,3.4,0,0,1,.08.57,2.31,2.31,0,0,1-.9,2,3.58,3.58,0,0,1-2.26.7H66.88a4,4,0,0,1-2.29-.58,2.81,2.81,0,0,1-1.15-1.89,8.35,8.35,0,0,1-.14-1.24Z"/><path class="cls-2" d="M83.36,48.72a3.16,3.16,0,0,1,.83-2.28,2.91,2.91,0,0,1,2.23-.88,3,3,0,0,1,1.94.63,2.91,2.91,0,0,1,1,1.74,3,3,0,0,1,.06.79l0,9.22L99,47a6.61,6.61,0,0,1,1.16-1.05,2.25,2.25,0,0,1,1.27-.34,3.15,3.15,0,0,1,1.83.57,2.27,2.27,0,0,1,1,1.48s0,.11,0,.24a1.06,1.06,0,0,0,0,.26,2.48,2.48,0,0,1-.29,1.15,5.72,5.72,0,0,1-.73,1l-6.25,6.84,7.41,11.71.22.36A7.31,7.31,0,0,1,105.6,71a.59.59,0,0,0,0,.18v.21a2.79,2.79,0,0,1-.92,2.34,3.56,3.56,0,0,1-2.21.71,3.06,3.06,0,0,1-1.52-.33,3.87,3.87,0,0,1-1.19-1.33l-7-11.29-3.33,3.49,0,6.29a3.29,3.29,0,0,1-.84,2.3,2.94,2.94,0,0,1-2.24.87,3.09,3.09,0,0,1-2-.64,2.81,2.81,0,0,1-1-1.71,3.69,3.69,0,0,1,0-.82Z"/></g></g></svg>