<?xml version="1.0" encoding="utf-8"?>
<!-- Generator: Adobe Illustrator 23.0.0, SVG Export Plug-In . SVG Version: 6.00 Build 0)  -->
<svg version="1.1" id="Layer_1" xmlns="http://www.w3.org/2000/svg" xmlns:xlink="http://www.w3.org/1999/xlink" x="0px" y="0px"
	 viewBox="0 0 76.9 76.9" style="enable-background:new 0 0 76.9 76.9;" xml:space="preserve">
<style type="text/css">
	.st0{fill:#3C5A99;}
</style>
<title>Asset 3</title>
<path class="st0" d="M72.7,0H4.3C1.9,0,0,1.9,0,4.3v68.4c0,2.3,1.9,4.3,4.3,4.3h36.8V47.1h-10V35.6h10V27c0-10,6.1-15.4,14.9-15.4
	c3,0,6,0.1,9,0.5v10.4h-6.2c-4.8,0-5.8,2.3-5.8,5.7v7.4h11.5l-1.5,11.6h-10v29.8h19.6c2.3,0,4.3-1.9,4.3-4.3V4.3
	C76.9,1.9,75,0,72.7,0z"/>
</svg>
