<svg xmlns="http://www.w3.org/2000/svg" viewBox="0 0 114.37 114.37"><defs><style>.cls-1{fill:#4ab748;}</style></defs><title>Asset 2</title><g id="Layer_2" data-name="Layer 2"><g id="Layer_1-2" data-name="Layer 1"><path class="cls-1" d="M2.38.13A49.34,49.34,0,0,1,7.82,0Q59.15,0,110.48,0a3.43,3.43,0,0,1,2.9,1c1.37,1.37.88,3.44,1,5.18q-.06,52.44,0,104.86a3.38,3.38,0,0,1-3.86,3.3q-53.55,0-107.12,0A3.22,3.22,0,0,1,0,111Q0,57.19,0,3.34A3.16,3.16,0,0,1,2.38.13ZM25.83,28.55q.06,28.61,0,57.23,10.71.06,21.43,0c.11-9.45-.13-18.92.13-28.38,2.34,3.28,4.48,6.7,6.88,9.94,4,6.21,8.52,12.08,12.37,18.38,7.19.19,14.38,0,21.58.11.08-.89.16-1.78.16-2.68-.11-18.21.08-36.42-.1-54.62-7.12-.06-14.23,0-21.34,0C66.9,38,67,47.53,66.9,57,60.29,47.62,54,37.94,47.28,28.66,40.15,28.33,33,28.56,25.83,28.55Z"/></g></g></svg>